<svg width="500" height="457" viewBox="0 0 500 457" fill="none" xmlns="http://www.w3.org/2000/svg">
<path d="M336.104 27.9185H252.197V29.118H336.104V27.9185Z" fill="#2C6BFF"/>
<path d="M313.329 28.8182H312.131V39.9142H313.329V28.8182Z" fill="#2C6BFF"/>
<path d="M276.77 28.8182H275.571V39.9142H276.77V28.8182Z" fill="#2C6BFF"/>
<path d="M378.657 85.4971H294.75V86.6966H378.657V85.4971Z" fill="#2C6BFF"/>
<path d="M318.724 74.7015H317.525V85.7975H318.724V74.7015Z" fill="#2C6BFF"/>
<path d="M355.283 74.7015H354.084V85.7975H355.283V74.7015Z" fill="#2C6BFF"/>
<path d="M490.133 112.487H406.227V113.687H490.133V112.487Z" fill="#2C6BFF"/>
<path d="M430.2 101.692H429.001V112.787H430.2V101.692Z" fill="#2C6BFF"/>
<path d="M466.759 101.692H465.56V112.787H466.759V101.692Z" fill="#2C6BFF"/>
<path d="M481.742 390.785H397.836V391.985H481.742V390.785Z" fill="#2C6BFF"/>
<path d="M421.81 379.989H420.611V391.085H421.81V379.989Z" fill="#2C6BFF"/>
<path d="M458.368 379.989H457.169V391.085H458.368V379.989Z" fill="#2C6BFF"/>
<path d="M338.501 198.256H254.595V199.456H338.501V198.256Z" fill="#2C6BFF"/>
<path d="M278.568 187.46H277.37V198.556H278.568V187.46Z" fill="#2C6BFF"/>
<path d="M315.128 187.46H313.929V198.556H315.128V187.46Z" fill="#2C6BFF"/>
<path d="M364.872 342.803H280.966V344.002H364.872V342.803Z" fill="#2C6BFF"/>
<path d="M304.939 332.007H303.74V343.103H304.939V332.007Z" fill="#2C6BFF"/>
<path d="M341.498 332.007H340.3V343.103H341.498V332.007Z" fill="#2C6BFF"/>
<path d="M499.123 299.019H415.217V300.218H499.123V299.019Z" fill="#2C6BFF"/>
<path d="M439.19 288.223H437.991V299.319H439.19V288.223Z" fill="#2C6BFF"/>
<path d="M475.749 288.223H474.55V299.319H475.749V288.223Z" fill="#2C6BFF"/>
<path d="M380.381 249.968C383.979 250.667 387.463 248.314 388.163 244.714C388.862 241.113 386.513 237.628 382.915 236.929C379.317 236.231 375.833 238.583 375.133 242.184C374.434 245.784 376.784 249.269 380.381 249.968Z" fill="#3F3D56"/>
<path d="M361.374 43.4935C361.374 43.4935 370.135 68.4481 364.743 72.2873C359.352 76.1265 382.94 107.48 382.94 107.48L411.246 99.8013L395.745 73.567C395.745 73.567 393.723 47.3327 393.723 43.4935C393.723 39.6544 361.374 43.4935 361.374 43.4935Z" fill="#FFD6BA"/>
<path opacity="0.1" d="M361.374 43.4935C361.374 43.4935 370.135 68.4481 364.743 72.2873C359.352 76.1265 382.94 107.48 382.94 107.48L411.246 99.8013L395.745 73.567C395.745 73.567 393.723 47.3327 393.723 43.4935C393.723 39.6544 361.374 43.4935 361.374 43.4935Z" fill="black"/>
<path d="M346.667 221.375C346.667 221.375 344.11 253.368 346.667 270.005C349.225 286.641 353.061 332.711 353.061 332.711C353.061 332.711 353.061 419.733 367.128 421.012C381.194 422.292 391.424 423.572 392.703 418.453C393.982 413.334 386.309 410.774 390.146 408.215C393.982 405.656 395.261 396.698 390.146 386.46C385.031 376.222 390.146 272.564 390.146 272.564L414.442 337.83C414.442 337.83 417 391.579 419.557 399.257C422.115 406.935 417 421.012 425.951 422.292C434.903 423.572 445.133 415.893 450.248 413.334C455.363 410.774 442.575 410.774 445.133 409.495C447.69 408.215 455.363 404.376 452.805 403.096C450.248 401.816 447.69 340.39 447.69 340.39C447.69 340.39 440.657 209.218 431.706 204.099C422.754 198.98 417 207.797 417 207.797L346.667 221.375Z" fill="#201F30"/>
<path d="M369.685 415.893V426.131C369.685 426.131 358.176 453.96 369.685 453.96C381.194 453.96 390.145 456.844 390.145 453.005V418.453L369.685 415.893Z" fill="#201F30"/>
<path d="M441.821 414.881L443.501 424.98C443.501 424.98 459.42 450.545 448.067 452.433C436.714 454.32 428.357 458.633 427.727 454.846L422.058 420.762L441.821 414.881Z" fill="#201F30"/>
<path d="M368.583 60.8365C380.836 64.2229 393.518 57.0279 396.908 44.766C400.299 32.504 393.115 19.8185 380.862 16.432C368.609 13.0456 355.927 20.2406 352.537 32.5025C349.146 44.7645 356.33 57.45 368.583 60.8365Z" fill="#FFD6BA"/>
<path d="M372.243 81.8855C372.243 81.8855 378.637 101.081 388.867 97.2422L399.097 93.403L417 216.256C417 216.256 402.934 236.732 382.473 223.935C362.013 211.138 372.243 81.8855 372.243 81.8855Z" fill="white"/>
<path d="M390.146 78.046L395.9 65.8887C395.9 65.8887 429.788 81.8852 434.903 87.0041C440.018 92.123 440.018 99.8013 440.018 99.8013L431.067 131.794C431.067 131.794 433.624 202.179 433.624 204.739C433.624 207.298 442.576 221.375 436.182 216.256C429.788 211.137 428.509 206.018 423.394 213.697C418.279 221.375 406.77 230.333 406.77 230.333L390.146 78.046Z" fill="#F47458"/>
<path d="M434.903 170.186L431.067 206.019C431.067 206.019 408.049 226.494 413.164 227.774C418.279 229.054 420.836 223.935 420.836 223.935C420.836 223.935 429.788 232.893 434.903 227.774C440.018 222.655 452.806 174.026 452.806 174.026L434.903 170.186Z" fill="#FFD6BA"/>
<path d="M383.872 7.38686C379.003 5.85157 373.763 4.30986 368.883 5.81614C366.607 6.61993 364.48 7.79682 362.59 9.29863C357.138 13.2919 351.871 18.7563 351.618 25.5104L353.549 25.3119C353.081 27.0041 352.243 28.5712 351.095 29.8999C351.538 29.2537 352.041 30.6351 351.621 31.2965L347.959 37.0677C351.434 36.7821 354.711 40.2107 354.271 43.672C356.514 36.4132 359.594 28.2299 366.712 25.5839C370.302 24.2495 374.271 24.6363 378.076 25.0573C381.587 25.4457 385.253 25.9041 388.166 27.9012C391.079 29.8983 392.909 33.9508 391.259 37.0766C392.885 36.9751 394.259 38.4693 394.609 40.0611C394.958 41.653 394.544 43.3023 394.131 44.8794C395.404 46.4358 397.819 44.7113 398.97 43.061C401.67 39.1874 404.279 34.9905 404.702 30.2875C405.125 25.5844 402.662 20.2975 398.118 19.0254C398.838 18.5711 399.353 17.8546 399.554 17.0274L395.893 15.6744C396.882 15.8026 397.885 15.5827 398.73 15.0524C396.767 16.2938 386.282 8.14659 383.872 7.38686Z" fill="#201F30"/>
<path d="M378.637 74.207C378.637 74.207 368.227 63.9982 364.481 64.6235C360.734 65.2489 355.619 74.207 355.619 74.207C355.619 74.207 324.929 84.4447 326.208 94.6825C327.486 104.92 341.553 154.83 341.553 154.83C341.553 154.83 353.062 214.977 342.832 221.375C332.601 227.774 391.425 244.41 392.704 236.732C393.982 229.053 396.54 152.27 392.704 140.753C388.867 129.235 378.637 74.207 378.637 74.207Z" fill="#F47458"/>
<path d="M423.394 94.6826H439.206C439.206 94.6826 450.248 143.312 451.527 148.431C452.806 153.55 455.364 177.865 454.085 177.865C452.806 177.865 427.231 172.746 427.231 176.585L423.394 94.6826Z" fill="#F47458"/>
<path d="M422.858 223.251H362.326C356.419 196.057 355.925 169.783 362.326 144.68H422.858C413.09 169.331 412.479 195.426 422.858 223.251Z" fill="#FFCEAE"/>
<path d="M337.716 185.777L355.619 193.455C355.619 193.455 390.146 198.574 390.146 184.497C390.146 170.42 355.619 178.098 355.619 178.098L344.109 174.416L337.716 185.777Z" fill="#FFD6BA"/>
<path d="M341.552 87.0043L326.207 90.8435L314.698 158.669C314.698 158.669 310.862 176.585 317.256 177.865C323.649 179.144 341.552 189.382 341.552 189.382C341.552 189.382 344.11 170.186 349.225 170.186L336.437 159.948L344.11 115.158L341.552 87.0043Z" fill="#F47458"/>
<path d="M124.539 218.049H40.6326V219.248H124.539V218.049Z" fill="#2C6BFF"/>
<path d="M64.6064 207.253H63.4077V218.348H64.6064V207.253Z" fill="#2C6BFF"/>
<path d="M101.165 207.253H99.9668V218.348H101.165V207.253Z" fill="#2C6BFF"/>
<path d="M153.907 40.5139H70V41.7135H153.907V40.5139Z" fill="#2C6BFF"/>
<path d="M131.132 41.4137H129.934V52.5096H131.132V41.4137Z" fill="#2C6BFF"/>
<path d="M94.5729 41.4137H93.3743V52.5096H94.5729V41.4137Z" fill="#2C6BFF"/>
<path d="M254.709 158.67H170.802V159.87H254.709V158.67Z" fill="#2C6BFF"/>
<path d="M231.934 159.57H230.736V170.666H231.934V159.57Z" fill="#2C6BFF"/>
<path d="M195.375 159.57H194.177V170.666H195.375V159.57Z" fill="#2C6BFF"/>
<path d="M95.7717 158.071H11.865V159.27H95.7717V158.071Z" fill="#2C6BFF"/>
<path d="M72.997 158.97H71.7983V170.066H72.997V158.97Z" fill="#2C6BFF"/>
<path d="M36.4369 158.97H35.2383V170.066H36.4369V158.97Z" fill="#2C6BFF"/>
<path d="M196.46 98.0927H112.553V99.2922H196.46V98.0927Z" fill="#2C6BFF"/>
<path d="M136.526 87.2966H135.328V98.3925H136.526V87.2966Z" fill="#2C6BFF"/>
<path d="M173.086 87.2966H171.887V98.3925H173.086V87.2966Z" fill="#2C6BFF"/>
<path d="M83.9067 410.514H0V411.713H83.9067V410.514Z" fill="#2C6BFF"/>
<path d="M61.1323 411.414H59.9336V422.51H61.1323V411.414Z" fill="#2C6BFF"/>
<path d="M24.5729 411.414H23.3743V422.51H24.5729V411.414Z" fill="#2C6BFF"/>
<path fill-rule="evenodd" clip-rule="evenodd" d="M135.176 318.248L115.043 338.381L112.167 358.514L103.538 349.886L97.7859 355.638C96.1975 357.227 93.622 357.227 92.0336 355.638L63.2717 326.876C61.6832 325.288 61.6832 322.712 63.2717 321.124L100.662 283.733C102.251 282.145 104.826 282.145 106.414 283.733L135.176 312.495C136.765 314.084 136.765 316.659 135.176 318.248Z" stroke="white" stroke-width="2"/>
<path d="M81.9668 328.314L107.852 302.429" stroke="white" stroke-width="2"/>
<path d="M90.5955 336.943L110.729 316.81" stroke="white" stroke-width="2"/>
<path fill-rule="evenodd" clip-rule="evenodd" d="M214.19 250.971L202.944 252.58L204.549 241.331L233.471 212.41C236.133 209.747 240.449 209.747 243.111 212.41C245.773 215.072 245.773 219.388 243.111 222.05L214.19 250.971Z" stroke="white" stroke-width="2"/>
<path d="M230.256 215.624L239.897 225.264" stroke="white" stroke-width="1.5"/>
<path d="M231.474 251.317V274.039C231.474 276.549 229.439 278.584 226.929 278.584H181.484C178.975 278.584 176.94 276.549 176.94 274.039V228.594C176.94 226.084 178.975 224.05 181.484 224.05H204.207" stroke="white" stroke-width="2"/>
<path d="M217.171 328.204L206.918 317.951L201.059 323.81L242.071 364.822L247.93 358.963L237.677 348.71L237.677 342.851L223.03 328.204L217.171 328.204Z" stroke="white" stroke-width="2"/>
<path d="M198.13 334.012L231.869 367.751L193.685 405.935C192.904 406.716 191.638 406.716 190.857 405.935L159.946 375.024C159.165 374.243 159.165 372.977 159.946 372.196L198.13 334.012Z" stroke="white" stroke-width="2"/>
</svg>
